# xmcd
#
# Track frame offsets:
# 150
# 15283
# 28163
# 40951
# 56245
# 67651
# 82067
# 91745
# 105410
# 119506
# 131005
# 145188
# 158912
# 170452
#
# Disc length: 2441 seconds
#
#
# Revision: 0
# Processed by: cddbd v1.5.1PL0 Copyright (c) Steve Scherf et al.
# Submitted via: FreeRIP 2.70 
#
DISCID=b309870e
DTITLE=Tião Carreiro e pardinho - Estrela de Ouro
DYEAR=1986
DGENRE=Sertanejo raiz
TTITLE0=Estrela de Ouro
TTITLE1=Rainha do Vale
TTITLE2=Vim Dizer Adeus
TTITLE3=Canção da Madrugada
TTITLE4=O Carpideiro
TTITLE5=Saudade de Ituitaba
TTITLE6=Rio Paranapanema
TTITLE7=A Coisa Ficou Bonita
TTITLE8=Oi Paixão
TTITLE9=Vacilou Virou Petisco
TTITLE10=O Mundo Velho Não Tem Jeito
TTITLE11=O Mundo no Avesso
TTITLE12=Com Deus na Frente
TTITLE13=Meu Protesto
EXTD=
EXTT0=
EXTT1=
EXTT2=
EXTT3=
EXTT4=
EXTT5=
EXTT6=
EXTT7=
EXTT8=
EXTT9=
EXTT10=
EXTT11=
EXTT12=
EXTT13=
PLAYORDER=
